<?xml version="1.0" encoding="utf-8"?>
<!-- Generator: Adobe Illustrator 27.9.4, SVG Export Plug-In . SVG Version: 9.03 Build 54784)  -->
<svg version="1.1" id="Layer_1" xmlns="http://www.w3.org/2000/svg" xmlns:xlink="http://www.w3.org/1999/xlink" x="0px" y="0px"
	 viewBox="0 0 300 300" style="enable-background:new 0 0 300 300;" xml:space="preserve">
<style type="text/css">
	.st0{fill:#2D1737;}
	.st1{fill:#FFFFFF;}
</style>
<g>
	<g>
		<path class="st0" d="M143.59,113.59L125.07,81.4H115v32.19h-13.2V33.13h27.79c6.17,0,11.4,1.08,15.69,3.24
			c4.28,2.16,7.48,5.06,9.61,8.68c2.12,3.63,3.18,7.68,3.18,12.16c0,5.25-1.52,10.01-4.57,14.3c-3.05,4.28-7.74,7.2-14.07,8.74
			l19.91,33.34H143.59z M115,70.87h14.59c4.94,0,8.66-1.23,11.17-3.7c2.51-2.47,3.76-5.79,3.76-9.96c0-4.17-1.24-7.43-3.71-9.78
			c-2.47-2.35-6.21-3.53-11.23-3.53H115V70.87z"/>
		<path class="st0" d="M155.83,161c-4.32-1.89-7.72-4.57-10.19-8.05c-2.47-3.47-3.71-7.52-3.71-12.16h14.13
			c0.31,3.47,1.68,6.33,4.11,8.57c2.43,2.24,5.85,3.36,10.24,3.36c4.55,0,8.1-1.1,10.65-3.3c2.55-2.2,3.82-5.04,3.82-8.51
			c0-2.7-0.79-4.9-2.37-6.6c-1.58-1.7-3.55-3.01-5.9-3.94c-2.36-0.93-5.62-1.93-9.78-3.01c-5.25-1.39-9.51-2.8-12.79-4.23
			c-3.28-1.43-6.08-3.65-8.39-6.66s-3.47-7.02-3.47-12.04c0-4.63,1.16-8.68,3.47-12.16c2.32-3.47,5.56-6.14,9.73-7.99
			c4.17-1.85,8.99-2.78,14.47-2.78c7.79,0,14.18,1.95,19.16,5.85c4.98,3.9,7.74,9.24,8.28,16.03h-14.59
			c-0.23-2.93-1.62-5.44-4.17-7.52c-2.55-2.08-5.9-3.13-10.07-3.13c-3.78,0-6.87,0.97-9.26,2.89c-2.4,1.93-3.59,4.71-3.59,8.34
			c0,2.47,0.75,4.5,2.26,6.08c1.5,1.58,3.41,2.84,5.73,3.76c2.32,0.93,5.48,1.93,9.49,3.01c5.33,1.47,9.67,2.93,13.02,4.4
			c3.36,1.47,6.21,3.72,8.57,6.77c2.35,3.05,3.53,7.12,3.53,12.21c0,4.09-1.1,7.95-3.3,11.58c-2.2,3.63-5.4,6.54-9.61,8.74
			c-4.21,2.2-9.17,3.3-14.88,3.3C165.01,163.83,160.15,162.89,155.83,161z"/>
	</g>
	<g>
		<path class="st0" d="M32.2,223.6l-10.13-17.38h-6.71v17.38H9.82v-42.51h13.72c3.21,0,5.93,0.55,8.14,1.65
			c2.22,1.1,3.87,2.58,4.97,4.45c1.1,1.87,1.65,4.01,1.65,6.4c0,2.93-0.84,5.51-2.53,7.75c-1.69,2.24-4.22,3.72-7.59,4.45
			l10.67,17.81H32.2z M15.37,201.76h8.17c3.01,0,5.27-0.74,6.77-2.23c1.5-1.48,2.26-3.47,2.26-5.95c0-2.52-0.74-4.47-2.23-5.85
			c-1.48-1.38-3.75-2.07-6.8-2.07h-8.17V201.76z"/>
		<path class="st0" d="M51.84,185.6v14.21h15.49v4.57H51.84v14.64h17.32v4.57H46.29v-42.57h22.87v4.57H51.84z"/>
		<path class="st0" d="M102.25,183.68c3.39,1.73,6,4.2,7.81,7.41c1.81,3.21,2.71,6.99,2.71,11.34c0,4.35-0.91,8.12-2.71,11.31
			c-1.81,3.19-4.41,5.63-7.81,7.32c-3.4,1.69-7.41,2.53-12.05,2.53H76.97v-42.51H90.2C94.84,181.09,98.85,181.95,102.25,183.68z
			 M102.76,214.66c2.89-2.91,4.33-6.98,4.33-12.23c0-5.28-1.45-9.41-4.36-12.38c-2.91-2.97-7.09-4.45-12.53-4.45h-7.69v33.42h7.69
			C95.69,219.02,99.88,217.57,102.76,214.66z"/>
		<path class="st0" d="M125.42,222.53c-2.22-1-3.95-2.38-5.22-4.15c-1.26-1.77-1.91-3.81-1.95-6.13h5.92
			c0.2,1.99,1.03,3.67,2.47,5.03c1.44,1.36,3.55,2.04,6.31,2.04c2.64,0,4.73-0.66,6.25-1.98c1.52-1.32,2.29-3.02,2.29-5.09
			c0-1.63-0.45-2.95-1.34-3.96c-0.89-1.02-2.01-1.79-3.35-2.32c-1.34-0.53-3.15-1.1-5.43-1.71c-2.81-0.73-5.05-1.46-6.74-2.2
			c-1.69-0.73-3.13-1.88-4.33-3.45c-1.2-1.56-1.8-3.67-1.8-6.31c0-2.32,0.59-4.37,1.77-6.16c1.18-1.79,2.84-3.17,4.97-4.15
			c2.13-0.98,4.58-1.46,7.35-1.46c3.98,0,7.25,1,9.79,2.99c2.54,1.99,3.97,4.64,4.3,7.93h-6.1c-0.2-1.63-1.06-3.06-2.56-4.3
			c-1.5-1.24-3.5-1.86-5.98-1.86c-2.32,0-4.21,0.6-5.67,1.8c-1.46,1.2-2.2,2.88-2.2,5.03c0,1.55,0.44,2.81,1.31,3.78
			c0.87,0.98,1.95,1.72,3.23,2.23c1.28,0.51,3.08,1.09,5.4,1.74c2.81,0.77,5.06,1.54,6.77,2.29c1.71,0.75,3.17,1.91,4.39,3.48
			c1.22,1.57,1.83,3.69,1.83,6.37c0,2.07-0.55,4.03-1.65,5.85c-1.1,1.83-2.72,3.31-4.88,4.45c-2.16,1.14-4.7,1.71-7.62,1.71
			C130.15,224.02,127.64,223.53,125.42,222.53z"/>
		<path class="st0" d="M187.42,181.09v42.51h-5.55v-19.27h-21.65v19.27h-5.55v-42.51h5.55v18.66h21.65v-18.66H187.42z"/>
		<path class="st0" d="M221.39,214.14h-18.54l-3.42,9.45h-5.85l15.37-42.27h6.4l15.31,42.27h-5.85L221.39,214.14z M219.8,209.63
			l-7.69-21.47l-7.68,21.47H219.8z"/>
		<path class="st0" d="M290.18,181.09l-12.32,42.51h-6.22l-9.88-34.21l-10.25,34.21l-6.16,0.06l-11.89-42.57h5.92l9.27,36.05
			l10.25-36.05h6.22l9.76,35.92l9.33-35.92H290.18z"/>
	</g>
	<g>
		<path class="st0" d="M64.7,266c-1.3-0.58-2.32-1.4-3.06-2.43c-0.74-1.04-1.12-2.24-1.15-3.6h3.47c0.12,1.17,0.6,2.15,1.45,2.95
			c0.85,0.8,2.08,1.2,3.7,1.2c1.55,0,2.77-0.39,3.67-1.16c0.89-0.78,1.34-1.77,1.34-2.99c0-0.95-0.26-1.73-0.79-2.33
			c-0.53-0.6-1.18-1.05-1.97-1.36c-0.79-0.31-1.85-0.64-3.19-1c-1.65-0.43-2.97-0.86-3.96-1.29c-0.99-0.43-1.84-1.1-2.54-2.02
			c-0.7-0.92-1.06-2.15-1.06-3.7c0-1.36,0.35-2.57,1.04-3.62c0.69-1.05,1.66-1.86,2.92-2.43c1.25-0.57,2.69-0.86,4.31-0.86
			c2.34,0,4.25,0.58,5.75,1.75c1.49,1.17,2.33,2.72,2.52,4.65h-3.58c-0.12-0.95-0.62-1.8-1.5-2.52c-0.88-0.73-2.05-1.09-3.51-1.09
			c-1.36,0-2.47,0.35-3.33,1.06c-0.86,0.7-1.29,1.69-1.29,2.95c0,0.91,0.26,1.65,0.77,2.22c0.51,0.57,1.15,1.01,1.9,1.31
			c0.75,0.3,1.81,0.64,3.17,1.02c1.65,0.45,2.97,0.9,3.97,1.34c1,0.44,1.86,1.12,2.58,2.04c0.72,0.92,1.07,2.17,1.07,3.74
			c0,1.22-0.32,2.36-0.97,3.44c-0.64,1.07-1.6,1.95-2.86,2.61c-1.26,0.67-2.76,1-4.47,1C67.47,266.87,66,266.58,64.7,266z"/>
		<path class="st0" d="M86.84,265.24c-1.91-1.09-3.42-2.6-4.53-4.55c-1.11-1.94-1.66-4.13-1.66-6.57c0-2.43,0.56-4.62,1.66-6.57
			c1.11-1.94,2.62-3.46,4.53-4.55c1.91-1.09,4.02-1.63,6.34-1.63c2.34,0,4.46,0.54,6.37,1.63c1.91,1.09,3.41,2.6,4.51,4.53
			c1.1,1.93,1.65,4.13,1.65,6.59c0,2.46-0.55,4.65-1.65,6.59s-2.6,3.44-4.51,4.53c-1.91,1.09-4.03,1.63-6.37,1.63
			C90.86,266.87,88.75,266.33,86.84,265.24z M97.88,262.83c1.4-0.81,2.49-1.97,3.29-3.47c0.8-1.5,1.2-3.25,1.2-5.23
			c0-2-0.4-3.75-1.2-5.24c-0.8-1.49-1.89-2.64-3.28-3.45c-1.38-0.81-2.96-1.22-4.73-1.22c-1.77,0-3.34,0.41-4.72,1.22
			c-1.38,0.81-2.48,1.96-3.28,3.45c-0.8,1.49-1.2,3.24-1.2,5.24c0,1.98,0.4,3.72,1.2,5.23c0.8,1.5,1.9,2.66,3.29,3.47
			c1.4,0.81,2.96,1.22,4.71,1.22C94.92,264.04,96.48,263.64,97.88,262.83z"/>
		<path class="st0" d="M123.74,241.67v2.65H112.9v8.41h8.81v2.65h-8.81v11.24h-3.26v-24.95H123.74z"/>
		<path class="st0" d="M142.68,241.67v2.65h-6.8v22.3h-3.26v-22.3h-6.84v-2.65H142.68z"/>
		<path class="st0" d="M177.69,241.67l-7.23,24.95h-3.65l-5.8-20.08l-6.01,20.08l-3.62,0.04l-6.98-24.99h3.47l5.44,21.16l6.01-21.16
			h3.65l5.73,21.08l5.48-21.08H177.69z"/>
		<path class="st0" d="M195.66,261.07h-10.88l-2,5.55h-3.44l9.02-24.81h3.76l8.98,24.81h-3.44L195.66,261.07z M194.73,258.42
			l-4.51-12.6l-4.51,12.6H194.73z"/>
		<path class="st0" d="M217.82,266.62l-5.94-10.2h-3.94v10.2h-3.26v-24.95h8.05c1.88,0,3.48,0.32,4.78,0.97
			c1.3,0.64,2.27,1.52,2.92,2.61c0.64,1.1,0.97,2.35,0.97,3.76c0,1.72-0.5,3.23-1.49,4.55c-0.99,1.31-2.48,2.18-4.46,2.61
			l6.26,10.45H217.82z M207.94,253.81h4.8c1.77,0,3.09-0.44,3.97-1.31c0.88-0.87,1.32-2.03,1.32-3.49c0-1.48-0.44-2.62-1.31-3.44
			c-0.87-0.81-2.2-1.22-3.99-1.22h-4.8V253.81z"/>
		<path class="st0" d="M229.34,244.32v8.34h9.09v2.68h-9.09v8.59h10.17v2.68h-13.42v-24.99h13.42v2.68H229.34z"/>
	</g>
	<circle class="st0" cx="41.29" cy="253.56" r="4.67"/>
	<circle class="st0" cx="258.71" cy="253.56" r="4.67"/>
</g>
</svg>
